<mxfile host="Electron" agent="Mozilla/5.0 (Windows NT 10.0; Win64; x64) AppleWebKit/537.36 (KHTML, like Gecko) draw.io/26.0.9 Chrome/128.0.6613.186 Electron/32.2.5 Safari/537.36" version="26.0.9">
  <diagram name="Page-1" id="TYjQI2zTILMFTZvS4b8B">
    <mxGraphModel dx="2074" dy="1230" grid="1" gridSize="10" guides="1" tooltips="1" connect="1" arrows="1" fold="1" page="1" pageScale="1" pageWidth="10000" pageHeight="10000" math="0" shadow="0">
      <root>
        <mxCell id="0" />
        <mxCell id="1" parent="0" />
        <mxCell id="tjzJFcxgAQ-EahPMEX9D-1" value="&lt;font face=&quot;Comic Sans MS&quot; style=&quot;font-size: 18px;&quot;&gt;Move Generator&lt;/font&gt;" style="rounded=1;whiteSpace=wrap;html=1;" vertex="1" parent="1">
          <mxGeometry x="5020" y="4660" width="240" height="140" as="geometry" />
        </mxCell>
        <mxCell id="tjzJFcxgAQ-EahPMEX9D-3" value="&lt;font face=&quot;Comic Sans MS&quot; style=&quot;font-size: 26px;&quot;&gt;GAME&lt;/font&gt;" style="rounded=1;whiteSpace=wrap;html=1;" vertex="1" parent="1">
          <mxGeometry x="4280" y="4660" width="240" height="140" as="geometry" />
        </mxCell>
        <mxCell id="tjzJFcxgAQ-EahPMEX9D-4" value="&lt;font face=&quot;Comic Sans MS&quot; style=&quot;font-size: 18px;&quot;&gt;Game Matcher&lt;/font&gt;" style="rounded=1;whiteSpace=wrap;html=1;" vertex="1" parent="1">
          <mxGeometry x="4660" y="4660" width="240" height="140" as="geometry" />
        </mxCell>
        <mxCell id="tjzJFcxgAQ-EahPMEX9D-5" value="&lt;font face=&quot;Comic Sans MS&quot; style=&quot;font-size: 18px;&quot;&gt;TOOLS&lt;/font&gt;" style="rounded=1;whiteSpace=wrap;html=1;" vertex="1" parent="1">
          <mxGeometry x="5020" y="4940" width="240" height="140" as="geometry" />
        </mxCell>
        <mxCell id="tjzJFcxgAQ-EahPMEX9D-6" value="&lt;font face=&quot;Comic Sans MS&quot; style=&quot;font-size: 18px;&quot;&gt;Board Classes&lt;/font&gt;" style="rounded=1;whiteSpace=wrap;html=1;" vertex="1" parent="1">
          <mxGeometry x="4660" y="4940" width="240" height="140" as="geometry" />
        </mxCell>
        <mxCell id="tjzJFcxgAQ-EahPMEX9D-7" value="&lt;font face=&quot;Comic Sans MS&quot; style=&quot;font-size: 18px;&quot;&gt;Board Manager&lt;/font&gt;" style="rounded=1;whiteSpace=wrap;html=1;" vertex="1" parent="1">
          <mxGeometry x="4280" y="4940" width="240" height="140" as="geometry" />
        </mxCell>
      </root>
    </mxGraphModel>
  </diagram>
</mxfile>
